<?xml version="1.0" encoding="UTF-8" standalone="no"?>
<!DOCTYPE svg PUBLIC "-//W3C//DTD SVG 20010904//EN"
              "http://www.w3.org/TR/2001/REC-SVG-20010904/DTD/svg10.dtd">

<svg xmlns="http://www.w3.org/2000/svg"
     width="151.363mm" height="140.513mm"
     viewBox="0 0 572 531">
  <path id="Selection #25"
        fill="none" stroke="black" stroke-width="3"
        d="M 283.99,78.00
           C 284.07,82.46 275.33,90.39 272.63,94.00
             272.63,94.00 249.37,125.00 249.37,125.00
             249.37,125.00 192.37,201.00 192.37,201.00
             192.37,201.00 181.13,216.00 181.13,216.00
             179.30,218.44 176.54,222.56 173.91,223.98
             171.65,225.20 168.52,224.99 166.00,225.00
             166.00,225.00 136.00,225.30 136.00,225.30
             136.00,225.30 155.00,206.00 155.00,206.00
             155.00,206.00 185.00,176.00 185.00,176.00
             185.00,176.00 283.99,78.00 283.99,78.00 Z
           M 283.99,78.00
           C 283.99,78.00 278.25,91.00 278.25,91.00
             278.25,91.00 267.25,113.00 267.25,113.00
             267.25,113.00 226.75,194.00 226.75,194.00
             226.75,194.00 216.25,215.00 216.25,215.00
             216.25,215.00 211.00,225.00 211.00,225.00
             211.00,225.00 203.00,225.00 203.00,225.00
             203.00,225.00 173.91,225.47 173.91,225.47
             173.91,225.47 206.63,181.00 206.63,181.00
             206.63,181.00 255.37,116.00 255.37,116.00
             255.37,116.00 283.99,78.00 283.99,78.00 Z
           M 284.00,78.01
           C 284.00,78.01 281.63,91.00 281.63,91.00
             281.63,91.00 276.13,113.00 276.13,113.00
             276.13,113.00 255.87,194.00 255.87,194.00
             255.87,194.00 250.37,216.00 250.37,216.00
             250.37,216.00 247.98,225.00 247.98,225.00
             247.98,225.00 240.00,225.00 240.00,225.00
             240.00,225.00 211.00,225.00 211.00,225.00
             211.00,225.00 230.75,185.00 230.75,185.00
             230.75,185.00 267.25,112.00 267.25,112.00
             267.25,112.00 284.00,78.01 284.00,78.01 Z
           M 284.02,77.98
           C 284.02,77.98 285.00,94.00 285.00,94.00
             285.00,94.00 285.00,123.00 285.00,123.00
             285.00,123.00 285.00,225.00 285.00,225.00
             285.00,225.00 248.00,225.00 248.00,225.00
             248.00,225.00 257.13,188.00 257.13,188.00
             257.13,188.00 273.87,121.00 273.87,121.00
             273.87,121.00 284.02,77.98 284.02,77.98 Z
           M 283.99,77.97
           C 283.99,77.97 290.37,98.00 290.37,98.00
             290.37,98.00 298.87,132.00 298.87,132.00
             298.87,132.00 314.37,194.00 314.37,194.00
             314.37,194.00 322.00,225.00 322.00,225.00
             322.00,225.00 285.00,225.00 285.00,225.00
             285.00,225.00 283.99,77.97 283.99,77.97 Z
           M 284.01,77.99
           C 284.01,77.99 296.25,99.00 296.25,99.00
             296.25,99.00 312.25,131.00 312.25,131.00
             312.25,131.00 342.25,191.00 342.25,191.00
             342.25,191.00 359.00,225.00 359.00,225.00
             359.00,225.00 330.00,225.00 330.00,225.00
             330.00,225.00 322.03,225.01 322.03,225.01
             322.03,225.01 319.37,215.00 319.37,215.00
             319.37,215.00 313.63,192.00 313.63,192.00
             313.63,192.00 295.63,120.00 295.63,120.00
             295.63,120.00 284.01,77.99 284.01,77.99 Z
           M 285.03,372.97
           C 285.03,372.97 318.13,330.00 318.13,330.00
             318.13,330.00 371.13,259.00 371.13,259.00
             371.13,259.00 386.87,238.00 386.87,238.00
             393.45,229.23 393.82,225.02 405.00,225.00
             405.00,225.00 434.00,225.00 434.00,225.00
             434.00,225.00 408.00,252.00 408.00,252.00
             408.00,252.00 361.00,299.00 361.00,299.00
             361.00,299.00 314.00,346.00 314.00,346.00
             314.00,346.00 285.03,372.97 285.03,372.97 Z
           M 285.03,372.94
           C 285.03,372.94 309.75,325.00 309.75,325.00
             309.75,325.00 342.25,259.00 342.25,259.00
             342.25,259.00 353.75,236.00 353.75,236.00
             353.75,236.00 359.02,225.02 359.02,225.02
             359.02,225.02 367.00,225.00 367.00,225.00
             367.00,225.00 396.92,225.25 396.92,225.25
             396.92,225.25 370.37,261.00 370.37,261.00
             370.37,261.00 326.37,320.00 326.37,320.00
             326.37,320.00 301.63,353.00 301.63,353.00
             301.63,353.00 285.03,372.94 285.03,372.94 Z
           M 284.98,372.97
           C 284.98,372.97 292.35,346.00 292.35,346.00
             292.35,346.00 313.63,259.00 313.63,259.00
             313.63,259.00 319.37,235.00 319.37,235.00
             319.37,235.00 322.03,225.03 322.03,225.03
             322.03,225.03 330.00,225.00 330.00,225.00
             330.00,225.00 359.00,225.00 359.00,225.00
             359.00,225.00 346.25,252.00 346.25,252.00
             346.25,252.00 319.26,306.00 319.26,306.00
             319.26,306.00 298.25,349.00 298.25,349.00
             298.25,349.00 284.98,372.97 284.98,372.97 Z
           M 285.00,225.00
           C 285.00,225.00 322.00,225.00 322.00,225.00
             322.00,225.00 316.65,247.00 316.65,247.00
             316.65,247.00 298.37,322.00 298.37,322.00
             298.37,322.00 290.87,353.00 290.87,353.00
             290.87,353.00 284.98,373.00 284.98,373.00
             284.98,373.00 285.00,355.00 285.00,355.00
             285.00,355.00 285.00,225.00 285.00,225.00 Z
           M 248.00,225.00
           C 248.00,225.00 285.00,225.00 285.00,225.00
             285.00,225.00 285.00,329.00 285.00,329.00
             285.00,329.00 285.00,352.00 285.00,352.00
             285.01,358.17 287.15,367.67 285.05,372.96
             285.05,372.96 267.12,301.00 267.12,301.00
             267.12,301.00 254.63,252.00 254.63,252.00
             254.63,252.00 248.00,225.00 248.00,225.00 Z
           M 211.00,225.00
           C 211.00,225.00 240.00,225.00 240.00,225.00
             240.00,225.00 247.98,225.01 247.98,225.01
             247.98,225.01 250.63,235.00 250.63,235.00
             250.63,235.00 256.13,257.00 256.13,257.00
             256.13,257.00 276.63,338.00 276.63,338.00
             276.63,338.00 282.13,360.00 282.13,360.00
             282.13,360.00 285.02,372.98 285.02,372.98
             285.02,372.98 267.25,338.00 267.25,338.00
             267.25,338.00 230.75,265.00 230.75,265.00
             230.75,265.00 211.00,225.00 211.00,225.00 Z
           M 248.00,262.00
           C 248.00,262.00 286.00,284.60 286.00,284.60
             286.00,284.60 362.00,330.40 362.00,330.40
             362.00,330.40 407.00,357.40 407.00,357.40
             407.00,357.40 433.98,372.99 433.98,372.99
             433.98,372.99 407.00,365.00 407.00,365.00
             407.00,365.00 359.00,349.00 359.00,349.00
             359.00,349.00 211.00,299.00 211.00,299.00
             218.36,288.72 238.04,271.96 248.00,262.00 Z
           M 249.00,263.00
           C 252.22,256.19 268.80,241.20 275.00,235.00
             277.09,232.91 282.04,227.20 285.00,227.20
             288.07,227.20 293.79,233.79 296.00,236.00
             296.00,236.00 322.00,262.00 322.00,262.00
             322.00,262.00 395.00,335.00 395.00,335.00
             395.00,335.00 434.01,372.99 434.01,372.99
             434.01,372.99 412.00,361.00 412.00,361.00
             412.00,361.00 374.00,338.20 374.00,338.20
             374.00,338.20 249.00,263.00 249.00,263.00 Z
           M 320.00,189.00
           C 320.00,189.00 323.00,189.00 323.00,189.00
             323.00,189.00 354.80,242.00 354.80,242.00
             354.80,242.00 395.05,309.00 395.05,309.00
             395.05,309.00 419.20,349.00 419.20,349.00
             419.20,349.00 433.98,373.04 433.98,373.04
             433.98,373.04 405.00,346.00 405.00,346.00
             405.00,346.00 358.00,299.00 358.00,299.00
             358.00,299.00 311.00,252.00 311.00,252.00
             311.00,252.00 285.00,225.00 285.00,225.00
             285.00,225.00 320.00,189.00 320.00,189.00 Z
           M 359.00,151.00
           C 362.15,155.41 364.22,163.65 366.00,169.00
             366.00,169.00 377.33,203.00 377.33,203.00
             377.33,203.00 414.67,315.00 414.67,315.00
             414.67,315.00 427.72,355.00 427.72,355.00
             429.12,359.66 434.79,368.47 433.97,373.03
             433.97,373.03 397.42,314.00 397.42,314.00
             397.42,314.00 352.20,239.00 352.20,239.00
             352.20,239.00 330.60,203.00 330.60,203.00
             328.98,200.31 323.18,191.65 323.29,189.00
             323.43,185.66 329.62,180.38 332.00,178.00
             332.00,178.00 359.00,151.00 359.00,151.00 Z
           M 433.96,373.03
           C 433.96,373.03 414.00,314.00 414.00,314.00
             414.00,314.00 380.67,214.00 380.67,214.00
             380.67,214.00 366.33,171.00 366.33,171.00
             365.22,167.67 360.43,154.54 360.64,152.00
             360.96,148.15 366.33,143.67 369.00,141.00
             369.00,141.00 385.96,124.00 385.96,124.00
             390.14,119.63 391.38,116.68 397.00,114.00
             397.00,114.00 423.13,298.00 423.13,298.00
             423.13,298.00 430.27,348.00 430.27,348.00
             431.07,353.52 433.27,368.11 433.96,373.03 Z
           M 433.99,373.06
           C 433.99,373.06 423.27,300.00 423.27,300.00
             423.27,300.00 404.87,170.00 404.87,170.00
             404.87,170.00 399.58,133.00 399.58,133.00
             399.07,129.60 396.84,116.48 397.35,114.00
             398.16,110.10 403.20,105.80 406.00,103.00
             412.20,96.80 427.19,80.22 434.00,77.00
             434.00,77.00 434.00,284.00 434.00,284.00
             434.00,284.00 434.00,344.00 434.00,344.00
             434.00,344.00 433.99,373.06 433.99,373.06 Z
           M 136.03,75.96
           C 136.03,75.96 186.00,92.28 186.00,92.28
             186.00,92.28 320.00,136.02 320.00,136.02
             320.00,136.02 360.00,149.00 360.00,149.00
             357.63,153.23 353.43,156.57 350.00,160.00
             350.00,160.00 332.00,178.00 332.00,178.00
             329.60,180.40 324.36,186.53 321.00,186.76
             318.21,186.95 309.72,181.26 307.00,179.58
             307.00,179.58 273.00,159.00 273.00,159.00
             273.00,159.00 185.00,105.80 185.00,105.80
             185.00,105.80 136.03,75.96 136.03,75.96 Z
           M 136.05,75.98
           C 136.05,75.98 176.00,99.80 176.00,99.80
             176.00,99.80 264.00,152.81 264.00,152.81
             264.00,152.81 321.00,187.00 321.00,187.00
             318.10,193.13 310.88,199.12 306.00,204.00
             306.00,204.00 285.00,225.00 285.00,225.00
             285.00,225.00 183.00,123.00 183.00,123.00
             183.00,123.00 153.00,93.00 153.00,93.00
             153.00,93.00 136.05,75.98 136.05,75.98 Z
           M 136.02,75.96
           C 141.62,78.61 146.67,85.67 151.00,90.00
             151.00,90.00 173.00,112.00 173.00,112.00
             173.00,112.00 250.00,189.00 250.00,189.00
             250.00,189.00 275.00,214.00 275.00,214.00
             277.20,216.20 283.80,221.94 283.80,224.99
             283.80,227.94 277.19,232.88 275.00,235.01
             268.52,241.34 254.07,257.66 247.00,261.00
             247.00,261.00 224.60,224.00 224.60,224.00
             224.60,224.00 186.80,161.00 186.80,161.00
             186.80,161.00 153.80,106.00 153.80,106.00
             153.80,106.00 136.02,75.96 136.02,75.96 Z
           M 136.03,75.98
           C 136.03,75.98 164.60,123.00 164.60,123.00
             164.60,123.00 218.00,212.00 218.00,212.00
             218.00,212.00 238.40,246.00 238.40,246.00
             240.15,248.92 246.29,258.14 246.27,261.00
             246.25,264.67 240.51,269.49 238.00,272.00
             231.80,278.20 216.81,294.78 210.00,298.00
             210.00,298.00 204.00,280.00 204.00,280.00
             204.00,280.00 192.00,244.00 192.00,244.00
             192.00,244.00 155.33,134.00 155.33,134.00
             155.33,134.00 136.03,75.98 136.03,75.98 Z
           M 136.02,75.98
           C 136.02,75.98 143.67,98.00 143.67,98.00
             143.67,98.00 155.00,132.00 155.00,132.00
             155.00,132.00 191.00,240.00 191.00,240.00
             191.00,240.00 204.69,281.00 204.69,281.00
             204.69,281.00 209.89,298.00 209.89,298.00
             209.89,298.00 201.72,309.00 201.72,309.00
             201.72,309.00 174.00,336.00 174.00,336.00
             174.00,336.00 167.73,294.00 167.73,294.00
             167.73,294.00 153.73,198.00 153.73,198.00
             153.73,198.00 141.87,117.00 141.87,117.00
             141.87,117.00 136.02,75.98 136.02,75.98 Z
           M 136.02,75.99
           C 137.60,79.85 138.49,92.41 139.13,97.00
             139.13,97.00 144.08,131.00 144.08,131.00
             144.08,131.00 150.27,174.00 150.27,174.00
             150.27,174.00 162.27,256.00 162.27,256.00
             162.27,256.00 170.13,310.00 170.13,310.00
             170.13,310.00 173.40,335.00 173.40,335.00
             172.88,339.03 167.80,343.20 165.00,346.00
             158.68,352.32 142.87,370.77 136.00,374.02
             136.00,374.02 136.02,75.99 136.02,75.99 Z
           M 136.02,75.98
           C 136.02,75.98 175.00,114.00 175.00,114.00
             175.00,114.00 248.00,187.00 248.00,187.00
             248.00,187.00 275.00,214.00 275.00,214.00
             277.21,216.21 283.80,221.93 283.80,225.00
             283.80,228.07 277.21,233.79 275.00,236.00
             275.00,236.00 248.00,263.00 248.00,263.00
             248.00,263.00 175.00,336.00 175.00,336.00
             175.00,336.00 136.00,374.00 136.00,374.00
             136.00,374.00 136.02,75.98 136.02,75.98 Z
           M 433.00,77.00
           C 433.00,77.00 434.00,105.00 434.00,105.00
             434.00,105.00 434.00,165.00 434.00,165.00
             434.00,165.00 434.00,373.00 434.00,373.00
             428.40,370.35 424.33,365.33 420.00,361.00
             420.00,361.00 398.00,339.00 398.00,339.00
             398.00,339.00 373.99,314.00 373.99,314.00
             373.99,314.00 320.00,260.00 320.00,260.00
             320.00,260.00 294.00,234.00 294.00,234.00
             291.77,231.76 286.46,227.50 287.34,224.00
             287.99,221.37 295.74,214.26 298.00,212.00
             298.00,212.00 327.00,183.00 327.00,183.00
             327.00,183.00 433.00,77.00 433.00,77.00 Z
           M 284.00,78.00
           C 284.00,78.00 285.00,93.00 285.00,93.00
             285.00,93.00 285.00,123.00 285.00,123.00
             285.00,123.00 285.00,226.00 285.00,226.00
             285.00,226.00 434.01,225.02 434.01,225.02
             434.01,225.02 398.00,262.00 398.00,262.00
             398.00,262.00 332.00,328.00 332.00,328.00
             332.00,328.00 302.00,358.00 302.00,358.00
             297.12,362.88 291.13,370.10 285.00,373.00
             285.00,373.00 285.00,226.00 285.00,226.00
             285.00,226.00 136.00,225.29 136.00,225.29
             136.00,225.29 155.00,207.00 155.00,207.00
             155.00,207.00 186.00,176.00 186.00,176.00
             186.00,176.00 284.00,78.00 284.00,78.00 Z" />
</svg>
